<svg xmlns="http://www.w3.org/2000/svg" xmlns:xlink="http://www.w3.org/1999/xlink" width="500" zoomAndPan="magnify" viewBox="0 0 375 374.999991" height="500" preserveAspectRatio="xMidYMid meet" version="1.0"><defs><clipPath id="0c131e73a4"><path d="M 75.214844 28.515625 L 299.464844 28.515625 L 299.464844 346.515625 L 75.214844 346.515625 Z M 75.214844 28.515625 " clip-rule="nonzero"/></clipPath></defs><path fill="#4fbc9d" d="M 288.144531 29.976562 L 288.144531 48.03125 M 288.144531 48.03125 L 288.144531 333.824219 L 76.804688 333.824219 L 76.804688 29.976562 L 288.144531 29.976562 " fill-opacity="1" fill-rule="nonzero"/><path fill="#f2bc28" d="M 277.210938 39.003906 L 277.210938 57.125 M 277.210938 57.125 L 277.210938 324.863281 L 86.152344 324.863281 L 86.152344 39.003906 L 277.210938 39.003906 " fill-opacity="1" fill-rule="nonzero"/><path fill="#4fbc9d" d="M 210.769531 241.253906 L 114.128906 241.253906 C 121.121094 214.675781 141.660156 194.394531 166.453125 189.882812 C 166.453125 189.882812 166.515625 189.882812 166.582031 189.882812 C 191.378906 194.203125 214.203125 213.277344 222.660156 241.253906 L 210.769531 241.253906 " fill-opacity="1" fill-rule="nonzero"/><path fill="#2256c3" d="M 288.144531 333.890625 L 76.804688 333.890625 C 79.476562 337.261719 82.144531 340.628906 84.878906 343.9375 C 156.027344 344.253906 227.109375 344.632812 298.257812 344.953125 C 297.9375 242.96875 297.554688 140.984375 297.238281 39.003906 L 288.144531 29.976562 Z M 223.613281 137.554688 C 215.09375 165.71875 192.011719 184.855469 167.027344 188.988281 C 166.835938 188.988281 166.644531 188.925781 166.453125 188.863281 C 141.660156 184.351562 121.121094 164.066406 114.128906 137.488281 L 223.613281 137.488281 L 223.613281 137.554688 " fill-opacity="1" fill-rule="nonzero"/><path fill="#ea5f52" d="M 172.238281 74.226562 C 157.617188 77.152344 146.554688 90.058594 146.554688 105.574219 C 146.554688 121.085938 157.554688 133.992188 172.238281 136.917969 C 186.863281 133.992188 197.925781 121.085938 197.925781 105.574219 C 197.925781 90.058594 186.925781 77.152344 172.238281 74.226562 Z M 225.585938 276.160156 L 114.128906 276.160156 C 116.988281 272.472656 136.253906 248.5 169.695312 244.621094 C 203.394531 248.628906 223.484375 273.488281 225.585938 276.160156 " fill-opacity="1" fill-rule="nonzero"/><g clip-path="url(#0c131e73a4)"><path fill="#000000" d="M 166.707031 191.789062 C 168.488281 191.46875 170.269531 191.214844 172.050781 191.089844 C 194.367188 197 214.265625 214.929688 222.339844 240.300781 L 116.035156 240.300781 C 123.347656 215.058594 143.054688 196.113281 166.707031 191.789062 Z M 116.035156 138.507812 L 223.359375 138.507812 C 215.285156 163.941406 195.257812 181.867188 172.8125 187.78125 C 170.777344 187.65625 168.742188 187.398438 166.773438 187.019531 C 143.054688 182.695312 123.347656 163.75 116.035156 138.507812 Z M 148.527344 105.0625 C 148.527344 89.617188 160.03125 76.835938 174.910156 74.800781 C 188.261719 78.675781 197.988281 90.949219 197.988281 105.511719 C 197.988281 119.242188 189.34375 130.941406 177.136719 135.519531 C 161.175781 134.566406 148.527344 121.277344 148.527344 105.0625 Z M 173.765625 245.195312 C 200.980469 249.898438 218.527344 267.894531 223.929688 274.1875 L 117.179688 274.1875 C 123.855469 266.496094 143.375 247.230469 173.765625 245.195312 Z M 112.730469 241.382812 C 112.601562 241.824219 112.730469 242.269531 112.984375 242.652344 C 113.238281 243.03125 113.683594 243.222656 114.128906 243.222656 L 166.011719 243.222656 C 135.109375 248.308594 116.671875 270.117188 112.984375 274.824219 C 112.664062 275.269531 112.601562 275.839844 112.855469 276.351562 C 113.109375 276.859375 113.617188 277.175781 114.191406 277.175781 L 244.085938 277.175781 C 244.660156 277.175781 245.167969 276.859375 245.421875 276.351562 C 245.675781 275.839844 245.613281 275.269531 245.230469 274.824219 C 242.878906 271.773438 223.738281 248.5 191.820312 243.222656 L 244.085938 243.222656 C 244.53125 243.222656 244.976562 243.03125 245.230469 242.652344 C 245.484375 242.269531 245.613281 241.824219 245.484375 241.382812 C 237.347656 214.484375 215.410156 194.777344 190.675781 189.5 C 215.410156 184.160156 237.347656 164.449219 245.484375 137.554688 C 245.613281 137.109375 245.546875 136.664062 245.230469 136.28125 C 244.976562 135.898438 244.53125 135.710938 244.085938 135.710938 L 192.777344 135.710938 C 204.476562 130.496094 212.613281 118.796875 212.613281 105.191406 C 212.613281 86.753906 197.609375 71.75 179.171875 71.75 C 160.734375 71.75 145.726562 86.753906 145.726562 105.191406 C 145.726562 118.796875 153.867188 130.496094 165.5625 135.710938 L 114.128906 135.710938 C 113.683594 135.710938 113.238281 135.898438 112.984375 136.28125 C 112.730469 136.664062 112.601562 137.109375 112.730469 137.554688 C 119.660156 163.941406 139.625 184.09375 163.910156 189.5 C 139.625 194.777344 119.660156 214.929688 112.730469 241.382812 Z M 85.582031 342.472656 L 79.859375 335.289062 L 288.144531 335.289062 C 288.972656 335.289062 289.609375 334.652344 289.609375 333.824219 L 289.609375 33.472656 L 295.777344 39.640625 L 296.792969 343.488281 Z M 78.269531 31.441406 L 286.683594 31.441406 L 286.683594 332.425781 L 78.269531 332.425781 Z M 298.636719 39.003906 C 298.636719 38.621094 298.511719 38.242188 298.191406 37.984375 L 289.164062 28.957031 C 289.101562 28.894531 288.972656 28.765625 288.847656 28.703125 C 288.847656 28.703125 288.78125 28.703125 288.78125 28.640625 C 288.65625 28.578125 288.527344 28.515625 288.402344 28.515625 C 288.335938 28.515625 288.210938 28.515625 288.144531 28.515625 L 76.804688 28.515625 C 75.980469 28.515625 75.34375 29.148438 75.34375 29.976562 L 75.34375 333.890625 C 75.34375 333.953125 75.34375 333.953125 75.34375 334.015625 C 75.34375 334.082031 75.34375 334.082031 75.34375 334.144531 C 75.34375 334.269531 75.410156 334.398438 75.410156 334.460938 C 75.46875 334.589844 75.535156 334.652344 75.597656 334.78125 C 75.597656 334.78125 75.597656 334.78125 75.597656 334.84375 L 83.671875 344.890625 C 83.925781 345.207031 84.371094 345.460938 84.816406 345.460938 L 298.191406 346.480469 C 298.574219 346.480469 298.953125 346.351562 299.210938 346.03125 C 299.464844 345.777344 299.65625 345.398438 299.65625 345.015625 Z M 275.75 323.398438 L 87.613281 323.398438 L 87.613281 40.46875 L 275.75 40.46875 Z M 277.210938 37.542969 L 86.152344 37.542969 C 85.324219 37.542969 84.691406 38.175781 84.691406 39.003906 L 84.691406 324.796875 C 84.691406 325.625 85.324219 326.261719 86.152344 326.261719 L 277.210938 326.261719 C 278.039062 326.261719 278.671875 325.625 278.671875 324.796875 L 278.671875 39.003906 C 278.671875 38.242188 277.972656 37.542969 277.210938 37.542969 " fill-opacity="1" fill-rule="nonzero"/></g></svg>